<?xml version="1.0" encoding="UTF-8" standalone="no"?>
<svg
   xmlns:osb="http://www.openswatchbook.org/uri/2009/osb"
   xmlns:dc="http://purl.org/dc/elements/1.1/"
   xmlns:cc="http://creativecommons.org/ns#"
   xmlns:rdf="http://www.w3.org/1999/02/22-rdf-syntax-ns#"
   xmlns:svg="http://www.w3.org/2000/svg"
   xmlns="http://www.w3.org/2000/svg"
   id="svg8"
   version="1.1"
   viewBox="0 0 390.88919 220.56058"
   height="220.56058mm"
   width="390.88919mm">
  <defs
     id="defs2">
    <linearGradient
       osb:paint="solid"
       id="linearGradient6243">
      <stop
         id="stop6241"
         offset="0"
         style="stop-color:#000000;stop-opacity:1;" />
    </linearGradient>
    <linearGradient
       osb:paint="solid"
       id="linearGradient6225">
      <stop
         id="stop6223"
         offset="0"
         style="stop-color:#ffffff;stop-opacity:1;" />
    </linearGradient>
  </defs>
  <metadata
     id="metadata5">
    <rdf:RDF>
      <cc:Work
         rdf:about="">
        <dc:format>image/svg+xml</dc:format>
        <dc:type
           rdf:resource="http://purl.org/dc/dcmitype/StillImage" />
        <dc:title></dc:title>
      </cc:Work>
    </rdf:RDF>
  </metadata>
  <g
     transform="translate(-50.971362,168.66666)"
     id="layer1">
    <g
       transform="matrix(0.84269663,0,0,0.89859155,24.521736,13.574665)"
       id="g4609">
      <g
         transform="matrix(-0.00708355,-0.93777366,1.0663019,-0.00708355,211.33918,242.10801)"
         id="g4617">
        <g
           id="g4612" />
        <path
           id="path4634"
           transform="matrix(-0.00222404,0.29443488,-0.31396435,-0.0020857,475.68921,-165.60293)"
           d="m 739.53516,0 c -0.87511,0.00126214 -136.67578,93.560316 -136.67578,303.32031 0,209.76 135.80066,456.67952 136.67578,456.67969 0.8751,-10e-4 126.59569,-250.33177 126.5957,-460.0918 C 866.13087,90.148206 740.41027,1.7107426e-4 739.53516,0 Z m 0.34375,185.74023 c 0.5243,-0.002 75.84767,64.27612 75.84765,213.83594 0,149.55982 -75.32334,328.04597 -75.84765,328.04688 -0.52432,0.002 -81.89063,-176.05347 -81.89063,-325.61328 0,-149.55985 81.36631,-216.26862 81.89063,-216.26954 z"
           style="fill:#c293f1;fill-opacity:1;stroke:none;stroke-width:0.45874199px;stroke-linecap:butt;stroke-linejoin:miter;stroke-opacity:1" />
        <path
           id="path4656"
           transform="matrix(-0.00222404,0.29443488,-0.31396435,-0.0020857,475.68921,-165.60293)"
           d="m 1223.0117,554.87109 c -20.398,-0.12713 -41.971,1.18836 -64.7012,4.30274 -207.81831,28.4743 -434.01838,196.53743 -433.89839,197.40429 0.12004,0.86683 265.19919,91.44111 473.01759,62.9668 207.8183,-28.47427 280.0672,-165.2679 279.9473,-166.13476 -0.107,-0.77202 -88.2672,-97.50386 -254.3653,-98.53907 z m -102.7695,68.69141 c 114.0312,0.10259 173.097,54.94598 173.1601,55.40039 0.073,0.51919 -53.3851,83.87348 -201.5605,104.17578 -148.17544,20.3023 -335.23458,-30.09786 -335.30664,-30.61719 -0.0729,-0.51925 163.30897,-105.0297 311.48434,-125.33203 18.522,-2.53778 35.9325,-3.64161 52.2227,-3.62695 z"
           style="fill:#c293f1;fill-opacity:1;stroke:none;stroke-width:0.45874199px;stroke-linecap:butt;stroke-linejoin:miter;stroke-opacity:1" />
        <path
           id="path4664"
           transform="matrix(-0.00222404,0.29443488,-0.31396435,-0.0020857,475.68921,-165.60293)"
           d="M 249.87109,562.51758 C 84.59759,561.71863 0.10584494,650.80398 0,651.57617 c -0.1185036,0.86705 73.978643,148.19215 281.76562,176.89453 207.78698,28.70235 470.96737,-72.03333 471.08594,-72.90039 0.1185,-0.86702 -230.65441,-159.65895 -438.4414,-188.36133 -22.7267,-3.13932 -44.24232,-4.59329 -64.53907,-4.6914 z m 98.26953,64.32226 c 17.90117,-0.11325 37.26755,1.05767 58.10157,3.93555 148.15306,20.46494 314.65484,119.50591 314.58398,120.02539 -0.07,0.51963 -185.60477,57.02936 -333.75781,36.56445 -148.15307,-20.46494 -203.10013,-110.19338 -203.0293,-110.71289 0.0599,-0.44658 54.70554,-49.1204 164.10156,-49.8125 z"
           style="fill:#c293f1;fill-opacity:1;stroke:none;stroke-width:0.45874199px;stroke-linecap:butt;stroke-linejoin:miter;stroke-opacity:1" />
        <path
           id="path4698"
           transform="matrix(-0.00222404,0.29443488,-0.31396435,-0.0020857,475.68921,-165.60293)"
           d="m 1107.8633,282.97461 c -21.3267,0.30364 -109.83653,8.18896 -179.99025,100.61914 -80.17564,105.63449 -106.16577,281.89072 -105.72461,282.22461 0.44118,0.33382 159.43564,-77.67798 239.61136,-183.3125 80.1756,-105.63449 51.3219,-199.08792 50.8808,-199.42188 -0.055,-0.0417 -1.7307,-0.15275 -4.7773,-0.10937 z m -66.0449,93.7793 c 0.2649,0.19942 13.6285,61.35985 -43.53715,136.67773 -57.16561,75.31788 -163.32155,136.41286 -163.58594,136.21289 -0.26469,-0.19942 26.05316,-119.96142 83.21875,-195.2793 57.16561,-75.31787 123.63994,-77.81126 123.90434,-77.61132 z"
           style="fill:#c293f1;fill-opacity:1;stroke:none;stroke-width:0.29002741px;stroke-linecap:butt;stroke-linejoin:miter;stroke-opacity:1" />
        <path
           id="path4706"
           transform="matrix(-0.00222404,0.29443488,-0.31396435,-0.0020857,475.68921,-165.60293)"
           d="m 347.02539,268.94727 c -0.8015,0.0212 -1.23096,0.0577 -1.25977,0.0801 -0.46069,0.35843 -33.78224,105.18791 51.97657,215.74024 85.7588,110.55233 258.28341,185.16898 258.74414,184.81054 0.4607,-0.35843 -35.62596,-183.69181 -121.38477,-294.24414 C 454.70269,271.69121 359.04786,268.62981 347.02539,268.9473 Z m 74.85938,97.83203 c 0.27548,-0.21535 66.25398,2.86512 127.40039,81.68945 61.14642,78.82429 94.42049,203.69144 94.14453,203.90625 C 643.15407,652.59035 528.29094,593.06651 467.14453,514.24219 405.99811,435.41789 421.6088,366.99414 421.88477,366.7793 Z"
           style="fill:#c293f1;fill-opacity:1;stroke:none;stroke-width:0.30599347px;stroke-linecap:butt;stroke-linejoin:miter;stroke-opacity:1" />
        <path
           id="path4722"
           transform="matrix(-0.00222404,0.29443488,-0.31396435,-0.0020857,475.68921,-165.60293)"
           d="m 228.13867,396.83594 c -15.61785,0.21036 -25.13355,3.19866 -25.21679,3.30859 -0.20489,0.27078 -3.14469,64.19623 61.6914,113.40625 64.83609,49.21002 173.01774,65.16122 173.22266,64.89063 0.20491,-0.27082 -47.67758,-97.85834 -112.51367,-147.06836 -38.49643,-29.21845 -74.35751,-34.84457 -97.1836,-34.53711 z m 42.47461,45.83594 c 14.23303,-0.12039 41.90937,3.54177 73.69141,27.66406 46.22843,35.08696 83.72624,100.24204 83.60351,100.40429 -0.12247,0.16236 -73.629,-15.99115 -119.85742,-51.07812 -46.22843,-35.08697 -47.75944,-75.88654 -47.63672,-76.04883 0.0382,-0.0508 3.72966,-0.88668 10.19922,-0.9414 z"
           style="fill:#c293f1;fill-opacity:1;stroke:none;stroke-width:0.17801233px;stroke-linecap:butt;stroke-linejoin:miter;stroke-opacity:1" />
        <path
           id="path4732"
           transform="matrix(-0.00222404,0.29443488,-0.31396435,-0.0020857,475.68921,-165.60293)"
           d="m 1224.8789,395.78906 c -23.8458,-0.0431 -58.9679,6.10269 -95.1445,34.16602 -64.3141,49.89033 -107.7221,150.25545 -107.5137,150.52344 0.2085,0.26801 106.8637,-20.72487 171.1777,-70.61524 64.3141,-49.89034 62.0522,-109.8785 61.8438,-110.14648 -0.091,-0.11726 -11.8166,-3.89423 -30.3633,-3.92774 z m -39.334,47.0586 c 8.0546,-0.0128 12.7852,1.09716 12.8281,1.15234 0.1255,0.16028 -1.6672,38.54318 -47.5234,74.11523 -45.8562,35.57206 -118.4961,54.92812 -118.6211,54.76758 -0.1251,-0.16028 34.5032,-66.98068 80.3594,-102.55273 30.0931,-23.34418 57.58,-27.4581 72.957,-27.48242 z"
           style="fill:#c293f1;fill-opacity:1;stroke:none;stroke-width:0.17801234px;stroke-linecap:butt;stroke-linejoin:miter;stroke-opacity:1" />
      </g>
    </g>
  </g>
</svg>
