<?xml version="1.0" encoding="UTF-8" standalone="no"?>
<svg
   xmlns:osb="http://www.openswatchbook.org/uri/2009/osb"
   xmlns:dc="http://purl.org/dc/elements/1.1/"
   xmlns:cc="http://creativecommons.org/ns#"
   xmlns:rdf="http://www.w3.org/1999/02/22-rdf-syntax-ns#"
   xmlns:svg="http://www.w3.org/2000/svg"
   xmlns="http://www.w3.org/2000/svg"
   width="121.77499mm"
   height="169.61681mm"
   viewBox="0 0 121.77499 169.61681"
   version="1.1"
   id="svg8">
  <defs
     id="defs2">
    <linearGradient
       id="linearGradient6243"
       osb:paint="solid">
      <stop
         style="stop-color:#000000;stop-opacity:1;"
         offset="0"
         id="stop6241" />
    </linearGradient>
    <linearGradient
       id="linearGradient6225"
       osb:paint="solid">
      <stop
         style="stop-color:#ffffff;stop-opacity:1;"
         offset="0"
         id="stop6223" />
    </linearGradient>
    <linearGradient
       gradientUnits="userSpaceOnUse"
       y2="363.48999"
       x2="599.51001"
       y1="796.48999"
       x1="599.51001"
       id="62e9b6da-24f7-4061-9c04-454aab4390a5"
       gradientTransform="matrix(0.11861073,0,0,0.10748606,283.35105,-271.05187)">
      <stop
         id="stop1190"
         stop-opacity="0.25"
         stop-color="gray"
         offset="0" />
      <stop
         id="stop1192"
         stop-opacity="0.12"
         stop-color="gray"
         offset="0.54" />
      <stop
         id="stop1194"
         stop-opacity="0.1"
         stop-color="gray"
         offset="1" />
    </linearGradient>
    <clipPath
       clipPathUnits="userSpaceOnUse"
       id="clipPath1521">
      <rect
         style="opacity:1;fill:#d795d7;fill-opacity:1;stroke:#fe00de;stroke-width:0.76499999;stroke-linecap:square;stroke-linejoin:round;stroke-miterlimit:4;stroke-dasharray:none;stroke-opacity:1"
         id="rect1523"
         width="195.64128"
         height="142.18738"
         x="-87.293953"
         y="-417.02893" />
    </clipPath>
  </defs>
  <metadata
     id="metadata5">
    <rdf:RDF>
      <cc:Work
         rdf:about="">
        <dc:format>image/svg+xml</dc:format>
        <dc:type
           rdf:resource="http://purl.org/dc/dcmitype/StillImage" />
        <dc:title></dc:title>
      </cc:Work>
    </rdf:RDF>
  </metadata>
  <g
     transform="translate(203.97607,-426.60528)"
     id="layer1">
    <g
       id="g4612"
       transform="matrix(-0.00596928,-0.84267549,0.89856902,-0.00636522,-236.8957,803.97696)" />
    <path
       id="path1576"
       d=""
       style="opacity:1;fill:#c293f1;fill-opacity:1;stroke:#930000;stroke-width:0.00029449;stroke-linecap:square;stroke-linejoin:round;stroke-miterlimit:4;stroke-dasharray:none;stroke-opacity:1" />
    <path
       id="path1578"
       d=""
       style="opacity:1;fill:#ff0000;fill-opacity:1;stroke:#930000;stroke-width:0.00029449;stroke-linecap:square;stroke-linejoin:round;stroke-miterlimit:4;stroke-dasharray:none;stroke-opacity:1" />
    <path
       id="path1201"
       d="m 339.93465,178.86702 c -3.20675,0.41805 -6.69131,1.12183 -8.81062,3.92378 -2.50561,3.31257 -2.16958,8.3476 -1.03452,12.54125 1.13506,4.19364 2.92893,8.28146 2.91042,12.67353 -0.0503,6.98236 -4.81807,12.90902 -10.24468,16.03376 -5.42661,3.12472 -11.5517,4.13279 -17.40958,5.95576 a 67.733333,67.733334 19.971437 0 0 -15.54957,7.12524 c -4.12485,2.55852 -8.27352,5.90285 -9.92451,10.9511 -2.70668,8.27882 2.27277,17.06562 7.19138,23.86277 15.08124,20.84123 34.30587,40.83845 57.80616,42.8625 17.5551,1.5002 35.12872,-7.37923 52.49333,-4.1222 7.97719,1.49224 15.40934,5.46628 22.89704,8.96673 7.48773,3.50044 15.36434,6.61458 23.43678,6.2177 8.07244,-0.39687 16.44388,-4.97417 19.94166,-13.35881 2.06637,-4.95565 2.27545,-10.70239 4.18567,-15.74006 5.85261,-15.45431 24.09303,-17.96257 34.67629,-29.59365 5.55632,-6.10923 8.73127,-14.49917 11.37717,-22.81237 4.27297,-13.5255 7.47707,-27.78125 6.76272,-42.16136 -0.31222,-6.26004 -1.48171,-12.76085 -4.95565,-17.59214 -2.52674,-3.51631 -6.05367,-5.84994 -9.49853,-8.10683 -7.84231,-5.13821 -16.26135,-10.44312 -25.27037,-9.83192 -5.1911,0.35189 -10.10183,2.66171 -15.05478,4.47145 -9.43508,3.43959 -19.27752,5.1435 -29.06983,6.82361 -16.17923,2.77812 -32.59133,5.55624 -48.99021,4.16983 -7.24164,-0.61649 -14.08113,-3.07711 -21.20635,-4.08517 -8.66511,-1.22502 -18.02871,-0.29898 -26.65942,0.8255 z"
       style="opacity:0.2;fill:#b6b4c5;stroke-width:0.26458332" />
    <circle
       id="circle1235"
       stroke-miterlimit="10"
       cy="444.33749"
       cx="112.84241"
       r="0"
       style="fill:none;stroke:#000000;stroke-width:0.26458338;stroke-miterlimit:10" />
    <path
       id="path4634"
       d="m -141.67348,426.60528 c -2.64569,1.52749 -38.12437,15.16335 -38.12437,63.77714 0,48.61379 37.88026,105.83963 38.12437,105.83967 0.2441,4e-5 35.31263,-58.01666 35.31263,-106.63045 1e-5,-48.61379 -35.31263,-62.98636 -35.31263,-62.98636 z m 0.0959,12.47263 c 0.14625,-4.6e-4 59.37651,39.48538 59.3765,74.14723 0,34.66184 -59.23024,75.49308 -59.3765,75.4933 -0.14625,4.7e-4 -62.39848,-40.53472 -62.39849,-75.19657 0,-34.66185 62.25223,-74.44374 62.39849,-74.44396 z"
       style="fill:#f4f39f;fill-opacity:1;stroke:none;stroke-width:0.11663865px;stroke-linecap:butt;stroke-linejoin:miter;stroke-opacity:1" />
    <g
       style="fill:#bc5f7d;fill-opacity:1"
       transform="matrix(0.43614742,0,0,0.43674842,-397.22838,615.5734)"
       id="g1452">
      <path
         style="fill:#bc5f7d;fill-opacity:1;stroke-width:0.26458332"
         d="m 570.05484,-211.29031 c 0,0 -22.19057,-0.50272 -28.71519,-2.11667 -6.52462,-1.61396 -12.14966,6.1251 -9.83986,10.54364 2.30982,4.41854 8.73126,7.4295 8.73126,7.4295 0,0 33.0332,1.60602 40.16376,-2.91041 0,0 2.71197,-7.73114 0,-9.23661 h -34.43554 l 25.39998,-0.50271 z"
         id="path1303" />
      <path
         style="fill:#bc5f7d;fill-opacity:1;stroke-width:0.26458332"
         d="m 605.30004,-213.59749 c 0,0 7.42947,1.60603 17.67152,-2.41035 0,0 19.17699,-0.60325 12.75295,11.64167 -6.42413,12.24492 -41.97093,9.23661 -41.97093,9.23661 0,0 -2.1166,-4.51909 0,-5.72295 2.11668,-1.20385 20.48402,-8.93497 26.19379,-8.53545 l -15.87506,3.11149 z"
         id="path1305" />
      <rect
         style="opacity:0.2;fill:#bc5f7d;fill-opacity:1;stroke-width:0.26458338"
         x="577.18005"
         y="-259.59799"
         width="12.017375"
         height="23.971251"
         id="rect1233" />
      <polygon
         style="fill:#bc5f7d;fill-opacity:1"
         points="623.9,631.41 533.33,620.87 374.51,630.45 357.29,637.16 361.12,682.53 629,680.94 "
         id="polygon1293"
         transform="matrix(0.26458334,0,0,0.26458334,452.88151,-377.21848)" />
      <polygon
         style="opacity:0.05;fill:#bc5f7d;fill-opacity:1"
         points="623.9,631.41 533.33,620.87 374.51,630.45 357.29,637.16 361.12,682.53 629,680.94 "
         id="polygon1295"
         transform="matrix(0.26458334,0,0,0.26458334,452.88151,-377.21848)" />
      <path
         style="fill:#bc5f7d;fill-opacity:1;stroke-width:0.26458332"
         d="m 594.05257,-200.24396 -23.59551,2.20927 c 0,0 16.16604,4.11691 25.60374,2.11666 z"
         id="path1297" />
      <path
         style="opacity:0.1;fill:#bc5f7d;fill-opacity:1;stroke-width:0.26458332"
         d="m 594.05257,-200.24396 -23.59551,2.20927 c 0,0 16.16604,4.11691 25.60374,2.11666 z"
         id="path1299" />
      <path
         style="fill:#bc5f7d;fill-opacity:1;stroke-width:0.26458332"
         d="m 576.07945,-284.78628 c 0,0 4.61966,12.14966 -2.2093,17.57098 -6.82888,5.42131 -1.20379,20.58459 -1.20379,20.58459 l 26.30747,-1.20385 c 0,0 2.61143,-17.06828 1.20388,-20.68513 0,0 -6.22568,1.8071 -7.63062,-2.00819 -1.40494,-3.81529 -2.41037,-14.2584 -2.41037,-14.2584 z"
         id="path1301" />
      <ellipse
         style="fill:#bc5f7d;fill-opacity:1;stroke-width:0.26458338"
         cx="584.51624"
         cy="-288.52975"
         id="circle1309"
         rx="11.04371"
         ry="11.043709" />
      <path
         style="fill:#bc5f7d;fill-opacity:1;stroke-width:0.26458332"
         d="m 577.28594,-268.92187 c 0,0 -13.25301,2.5109 -14.85902,5.82085 -1.60601,3.30993 -1.40494,14.66055 -1.40494,14.66055 0,0 0.60328,18.5764 -4.01638,20.88357 l -17.26932,12.04912 c 0,0 -12.25022,-10.74473 -15.26116,-4.41854 -3.01097,6.32619 14.45947,8.636 14.45947,8.636 l 19.47865,-5.82083 6.22559,-4.01638 c 0,0 2.91042,-1.40493 3.21211,-4.82071 l 2.61143,-20.68512 10.44303,-3.01096 h 16.86194 l 2.25952,-6.45054 c 0,0 4.16722,3.33904 3.56394,6.45054 -0.6032,3.1115 1.00281,23.28333 1.00281,23.28333 0,0 1.30441,4.51909 4.01637,5.82084 l 15.66599,5.64092 c 0,0 16.56817,1.60602 17.67151,-5.62239 1.10326,-7.22843 -16.26657,1.00276 -16.26657,1.00276 l -12.45135,-9.63878 c 0,0 -1.00272,-4.01637 -1.40494,-6.82889 -0.40214,-2.81252 -1.00273,-14.85899 -1.00273,-14.85899 0,0 3.81531,-12.65239 -7.2284,-14.859 l -14.25842,-4.41855 z"
         id="path1311" />
      <path
         style="opacity:0.07000002;fill:#bc5f7d;fill-opacity:1;stroke-width:0.26458332"
         d="m 582.7231,-250.19201 a 8.1306459,8.130646 35.428825 0 0 -10.52772,-2.96068 c 3.36286,2.51618 7.06963,3.18823 10.52772,2.96068 z"
         id="path1315" />
      <path
         style="fill:#bc5f7d;fill-opacity:1;stroke-width:0.26458332"
         d="m 567.84308,-264.95311 2.15899,13.20271 c 0,0 -2.11668,6.3262 -8e-5,12.55184 2.11668,6.22564 -2.61405,29.41902 -2.61405,29.41902 0,0 24.79938,7.9375 39.95208,-1.20385 0,0 -11.14424,-23.49501 -6.42674,-31.32667 4.7175,-7.83167 0.0767,-10.89553 0.0767,-10.89553 l 0.72498,-14.40657 -3.41309,-1.00277 -2.00823,14.25839 c 0,0 -13.85621,9.63877 -24.09826,1.20385 l -2.2093,-15.46225 z"
         id="path1321" />
      <path
         style="opacity:0.07000002;fill:#bc5f7d;fill-opacity:1;stroke-width:0.26458332"
         d="m 588.41434,-251.70013 a 8.1306459,8.130646 35.428825 0 1 10.52772,-2.96069 c -3.36017,2.51619 -7.06963,3.19088 -10.52772,2.96069 z"
         id="path1317" />
      <path
         style="fill:#bc5f7d;fill-opacity:1;stroke-width:0.26458332"
         d="m 578.48981,-206.36908 5.22818,-0.70378 c 0,0 6.02452,-7.73112 10.34258,-1.80711 0,0 1.80708,3.81529 4.01638,4.51909 a 29.691541,29.691542 81.290114 0 0 4.61958,1.00277 l -8.93495,2.5109 c 0,0 -3.91584,2.30981 -8.03275,1.70656 a 15.610417,15.610417 0 0 0 -7.2284,0.60325 z"
         id="path1323" />
      <path
         style="opacity:0.1;fill:#bc5f7d;fill-opacity:1;stroke-width:0.26458332"
         d="m 572.71658,-239.1536 c 0,0 9.4377,1.40495 11.04371,-1.1033"
         id="path1325" />
      <path
         style="opacity:0.1;fill:#bc5f7d;fill-opacity:1;stroke-width:0.26458332"
         d="m 590.59717,-240.75961 c 0,0 1.80708,1.8071 9.03548,0.50271"
         id="path1327" />
      <path
         style="opacity:0.1;fill:#bc5f7d;fill-opacity:1;stroke-width:0.26458332"
         d="m 572.21392,-268.7737 c 0,0 6.92679,1.00278 8.23382,0.40218"
         id="path1329" />
      <path
         style="opacity:0.1;fill:#bc5f7d;fill-opacity:1;stroke-width:0.26458332"
         d="m 587.47768,-268.7737 c 0,0 6.9268,1.00278 8.23382,0.40217"
         id="path1331" />
      <path
         style="opacity:0.1;fill:#bc5f7d;fill-opacity:1;stroke-width:0.26458332"
         d="m 579.24386,-207.12314 c 0,0 1.90761,8.99585 0,9.31335 -1.90761,0.31749 -4.61958,-1.48167 -4.61958,-1.68276 3.4e-4,-0.20109 1.20379,-5.92402 1.20379,-5.92402 z"
         id="path1333" />
      <path
         style="fill:#bc5f7d;fill-opacity:1;stroke-width:0.26458332"
         d="m 572.3296,-297.28969 c -0.84143,1.95527 -1.14042,4.26244 -0.24615,6.19389 0.68267,1.47373 2.01615,2.667 2.27284,4.27038 0.32275,2.01083 -1.16689,4.05607 -0.61121,6.01397 0.21168,0.75142 0.70643,1.38643 1.2091,1.98174 1.52932,1.8071 3.56132,3.55599 5.92146,3.41577 0.37298,-3.64596 -2.7782,-7.18344 -1.74632,-10.69975 0.37045,-1.25942 1.23826,-2.30717 1.76216,-3.50838 0.87042,-1.99231 0.74613,-4.26773 0.43129,-6.41879 -0.45775,-3.11943 -1.61662,-6.94796 -4.70957,-8.40845 -1.42349,-0.67205 -3.43964,-0.71967 -3.94762,1.10331 -0.2646,0.97366 0.37037,1.88912 0.45776,2.84162 0.11106,1.21179 -0.32545,2.1299 -0.79374,3.21469 z"
         id="path1339" />
      <path
         style="fill:#bc5f7d;fill-opacity:1;stroke-width:0.24004975"
         d="m 572.3296,-297.28969 c 0,0 14.85551,-1.63133 15.26034,0.8146 0.40484,2.44592 13.53118,6.44795 13.53118,6.44795 l -3.25475,-6.44795 -6.00279,-7.99117 c 0,0 -10.99226,-0.6448 -11.49633,-2e-5 -0.50397,0.64479 -6.3084,2.77263 -6.3084,2.77263 z"
         id="path1343" />
    </g>
    <path
       style="fill:#f4f39f;fill-opacity:1;stroke:none;stroke-width:0.11663865px;stroke-linecap:butt;stroke-linejoin:miter;stroke-opacity:1"
       d="m 24.636044,417.15588 c -2.64569,1.52749 -38.12437,15.16335 -38.12437,63.77714 0,48.61379 37.88026,105.83963 38.12437,105.83967 0.2441,4e-5 35.31263,-58.01666 35.31263,-106.63045 1e-5,-48.61379 -35.31263,-62.98636 -35.31263,-62.98636 z m 0.0959,12.47263 c 0.14625,-4.6e-4 59.37651,39.48538 59.3765,74.14723 0,34.66184 -59.23024,75.49308 -59.3765,75.4933 -0.14625,4.7e-4 -62.39848,-40.53472 -62.39849,-75.19657 0,-34.66185 62.25223,-74.44374 62.39849,-74.44396 z"
       id="path1784" />
    <path
       id="rect1786"
       d="m 122.3172,427.48487 123.53336,-9.08716 V 588.88397 L 122.3172,580.06408 Z"
       style="opacity:0.71100003;fill:#000000;fill-opacity:1;stroke:none;stroke-width:1.69999993;stroke-linecap:square;stroke-linejoin:round;stroke-miterlimit:4;stroke-dasharray:none;stroke-opacity:0" />
  </g>
</svg>
