<?xml version="1.0" encoding="UTF-8" standalone="no"?>
<svg
   xmlns:dc="http://purl.org/dc/elements/1.1/"
   xmlns:cc="http://creativecommons.org/ns#"
   xmlns:rdf="http://www.w3.org/1999/02/22-rdf-syntax-ns#"
   xmlns:svg="http://www.w3.org/2000/svg"
   xmlns="http://www.w3.org/2000/svg"
   xmlns:sodipodi="http://sodipodi.sourceforge.net/DTD/sodipodi-0.dtd"
   xmlns:inkscape="http://www.inkscape.org/namespaces/inkscape"
   inkscape:export-ydpi="96"
   inkscape:export-xdpi="96"
   inkscape:export-filename="/home/yash/HardDrive/WebDev/Shatakshi_Healing_Centre/img/logo3.svg.png"
   sodipodi:docname="logo3.svg"
   inkscape:version="1.0 (6e3e5246a0, 2020-05-07)"
   id="svg8"
   version="1.1"
   viewBox="0 0 187.44698 189.91356"
   height="189.91356mm"
   width="187.44698mm">
  <defs
     id="defs2">
    <clipPath
       id="clipPath985"
       clipPathUnits="userSpaceOnUse">
      <rect
         y="67.946426"
         x="-175.38094"
         height="161.14386"
         width="105.05219"
         id="rect987"
         style="opacity:1;fill:#d9b8cf;fill-opacity:1;stroke:#cad100;stroke-width:1.7;stroke-linecap:square;stroke-linejoin:round;stroke-miterlimit:4;stroke-dasharray:none;stroke-opacity:1" />
    </clipPath>
    <filter
       id="filter997"
       style="color-interpolation-filters:sRGB"
       inkscape:menu-tooltip="Light areas turn to black"
       inkscape:menu="Color"
       inkscape:label="Fade to Black or White">
      <feColorMatrix
         id="feColorMatrix989"
         result="result2"
         type="luminanceToAlpha" />
      <feComposite
         k4="0"
         k2="0"
         k1="0"
         id="feComposite991"
         result="result4"
         k3="2"
         in="result2"
         operator="arithmetic"
         in2="SourceGraphic" />
      <feBlend
         id="feBlend993"
         in2="result2"
         result="result3"
         mode="multiply"
         in="result4" />
      <feComposite
         result="fbSourceGraphic"
         id="feComposite995"
         in="result3"
         operator="in"
         in2="SourceGraphic" />
      <feColorMatrix
         id="feColorMatrix999"
         values="0 0 0 -1 0 0 0 0 -1 0 0 0 0 -1 0 0 0 0 1 0"
         in="fbSourceGraphic"
         result="fbSourceGraphicAlpha" />
      <feColorMatrix
         result="fbSourceGraphic"
         in="fbSourceGraphic"
         values="1 0 0 0 0 0 1 0 0 0 0 0 1 0 0 0 0 0 1 0"
         id="feColorMatrix1001" />
      <feColorMatrix
         id="feColorMatrix1003"
         values="0 0 0 -1 0 0 0 0 -1 0 0 0 0 -1 0 0 0 0 1 0"
         in="fbSourceGraphic"
         result="fbSourceGraphicAlpha" />
      <feColorMatrix
         result="fbSourceGraphic"
         in="fbSourceGraphic"
         values="1 0 0 0 0 0 1 0 0 0 0 0 1 0 0 0 0 0 1 0"
         id="feColorMatrix1005" />
      <feColorMatrix
         id="feColorMatrix1007"
         values="0 0 0 -1 0 0 0 0 -1 0 0 0 0 -1 0 0 0 0 1 0"
         in="fbSourceGraphic"
         result="fbSourceGraphicAlpha" />
      <feColorMatrix
         result="fbSourceGraphic"
         in="fbSourceGraphic"
         values="1 0 0 0 0 0 1 0 0 0 0 0 1 0 0 0 0 0 1 0"
         id="feColorMatrix1009" />
      <feColorMatrix
         id="feColorMatrix1011"
         values="0 0 0 -1 0 0 0 0 -1 0 0 0 0 -1 0 0 0 0 1 0"
         in="fbSourceGraphic"
         result="fbSourceGraphicAlpha" />
      <feColorMatrix
         result="fbSourceGraphic"
         in="fbSourceGraphic"
         values="1 0 0 0 0 0 1 0 0 0 0 0 1 0 0 0 0 0 1 0"
         id="feColorMatrix1013" />
      <feColorMatrix
         id="feColorMatrix1019"
         values="0 0 0 -1 0 0 0 0 -1 0 0 0 0 -1 0 0 0 0 1 0"
         in="fbSourceGraphic"
         result="fbSourceGraphicAlpha" />
      <feColorMatrix
         result="fbSourceGraphic"
         in="fbSourceGraphic"
         values="0.4 0 0 0 0 0 0.4 0 0 0 0 0 0.4 0 0 0 0 0 1 0"
         id="feColorMatrix1021" />
      <feColorMatrix
         id="feColorMatrix1023"
         values="0 0 0 -1 0 0 0 0 -1 0 0 0 0 -1 0 0 0 0 1 0"
         in="fbSourceGraphic"
         result="fbSourceGraphicAlpha" />
      <feColorMatrix
         result="fbSourceGraphic"
         in="fbSourceGraphic"
         values="1.38778e-16 0 0 0 0 0 1.38778e-16 0 0 0 0 0 1.38778e-16 0 0 0 0 0 1 0"
         id="feColorMatrix1025" />
      <feColorMatrix
         id="feColorMatrix1027"
         values="0 0 0 -1 0 0 0 0 -1 0 0 0 0 -1 0 0 0 0 1 0"
         in="fbSourceGraphic"
         result="fbSourceGraphicAlpha" />
      <feColorMatrix
         in="fbSourceGraphic"
         values="1.38778e-16 0 0 0 0 0 1.38778e-16 0 0 0 0 0 1.38778e-16 0 0 0 0 0 1 0"
         id="feColorMatrix1029" />
    </filter>
  </defs>
  <sodipodi:namedview
     inkscape:document-rotation="0"
     inkscape:window-maximized="1"
     inkscape:window-y="27"
     inkscape:window-x="0"
     inkscape:window-height="1016"
     inkscape:window-width="1920"
     fit-margin-bottom="0"
     fit-margin-right="0"
     fit-margin-left="0"
     fit-margin-top="0"
     inkscape:pagecheckerboard="true"
     showgrid="false"
     inkscape:current-layer="g76"
     inkscape:document-units="mm"
     inkscape:cy="326.15688"
     inkscape:cx="345.92754"
     inkscape:zoom="0.9899495"
     inkscape:pageshadow="2"
     inkscape:pageopacity="0"
     borderopacity="1.0"
     bordercolor="#666666"
     pagecolor="#ffffff"
     id="base" />
  <metadata
     id="metadata5">
    <rdf:RDF>
      <cc:Work
         rdf:about="">
        <dc:format>image/svg+xml</dc:format>
        <dc:type
           rdf:resource="http://purl.org/dc/dcmitype/StillImage" />
        <dc:title></dc:title>
      </cc:Work>
    </rdf:RDF>
  </metadata>
  <g
     transform="translate(-12.053488,-86.694046)"
     id="layer1"
     inkscape:groupmode="layer"
     inkscape:label="Layer 1">
    <g
       id="g83">
      <g
         id="g76">
        <g
           id="g1027">
          <g
             id="g990"
             transform="translate(-7.5405777,5.378344)">
            <g
               id="g1001"
               transform="translate(156.00188,3.5649585)">
              <circle
                 style="opacity:0.3;fill:#ffff09;fill-opacity:1;stroke-width:0.16965"
                 cx="-43.334564"
                 cy="118.06395"
                 id="circle1221"
                 r="36.474701" />
              <circle
                 style="opacity:0.3;fill:#9600fa;fill-opacity:1;stroke-width:0.130198"
                 cx="-43.712547"
                 cy="125.54788"
                 r="20.141058"
                 id="circle1219" />
            </g>
          </g>
          <g
             id="g1014"
             style="fill:#92d0ff;fill-opacity:1">
            <path
               transform="matrix(0.26458333,0,0,0.26458333,12.053488,86.694046)"
               id="path117"
               d="m 371.31433,692.78541 c 0.35522,-6.23496 1.32965,-29.74632 2.1654,-52.24747 0.83575,-22.50114 2.00445,-47.95699 2.59712,-56.56854 0.59267,-8.61155 1.45505,-40.43135 1.9164,-70.71068 0.92445,-60.67399 0.58917,-57.4581 8.08682,-77.56767 2.21891,-5.95137 5.82186,-16.95735 8.00657,-24.45773 5.18081,-17.7864 6.66906,-21.06148 14.22995,-31.31473 8.56335,-11.61267 32.29625,-35.17554 39.51762,-39.2345 3.12334,-1.75554 5.96439,-3.19191 6.31345,-3.19191 1.48622,0 0.4668,5.94534 -1.38565,8.08122 -5.19671,5.99185 1.36771,8.88748 10.15392,4.47898 3.36682,-1.68931 11.05928,-10.05875 11.05928,-12.03255 0,-1.46621 -1.1066,-1.95234 -3.712,-1.63067 -0.65265,0.0806 -1.85155,-0.80279 -2.66422,-1.96304 -1.79667,-2.56511 -0.49026,-8.25215 2.72746,-11.87315 4.88503,-5.49727 30.7007,-19.82562 43.80635,-24.31363 7.91905,-2.71186 8.32973,-2.69935 8.32973,0.25389 0,4.53298 2.44629,4.2802 16.54115,-1.70925 6.42631,-2.73077 10.84404,-6.43334 17.06257,-14.30036 3.57213,-4.51909 3.93306,-5.49197 3.49134,-9.41087 -0.27095,-2.40391 -0.76122,-4.63931 -1.08948,-4.96758 -0.32827,-0.32826 -2.42844,1.0579 -4.66706,3.08036 -2.23862,2.02245 -4.47761,3.67719 -4.97552,3.67719 -0.49792,0 -5.07203,2.99193 -10.16469,6.64872 -5.25949,3.77657 -9.8854,6.40849 -10.70854,6.09261 -2.42477,-0.93047 -1.69085,-7.7663 2.1454,-19.98255 1.97701,-6.29563 5.14454,-17.38054 7.03895,-24.63314 1.89442,-7.25259 5.44315,-18.16224 7.8861,-24.24366 2.44293,-6.08141 5.24277,-13.55725 6.22186,-16.61296 2.30394,-7.19051 11.64793,-25.4182 16.17608,-31.55531 1.9423,-2.63245 5.33771,-5.92652 7.54536,-7.32015 5.50517,-3.47526 6.72465,-5.68362 10.12403,-18.33364 5.16522,-19.22119 12.6161,-35.04764 19.95501,-42.38655 l 4.45006,-4.45006 h 7.77669 7.77669 l 2.91755,-6.818529 c 6.29984,-14.723206 11.33226,-19.455471 20.66237,-19.429968 3.11245,0.0085 6.28618,0.412715 7.05276,0.89824 1.69382,1.07282 1.46947,2.464286 -3.27301,20.299495 -4.38144,16.477452 -6.83295,30.456522 -10.71757,61.114232 -4.55677,35.96233 -4.67074,37.71387 -2.50795,38.54381 2.20619,0.8466 2.88922,-0.0284 9.97998,-12.78492 20.24252,-36.41697 28.69106,-47.80363 39.33132,-53.00943 4.61076,-2.25583 6.49631,-2.59942 12.86156,-2.34362 6.1246,0.24612 7.51836,0.61238 7.79221,2.04767 0.18343,0.96136 -2.58488,6.41619 -6.1518,12.12183 -3.56692,5.70564 -9.33477,15.37415 -12.81745,21.48557 -3.48267,6.11142 -8.76911,14.33266 -11.74764,18.26942 -7.79375,10.30111 -10.87074,17.48406 -10.2513,23.93071 1.12353,11.69275 -3.58131,25.51119 -16.24183,47.70345 -9.91572,17.38095 -28.22107,54.609 -34.5207,70.2056 -6.32659,15.66334 -9.72116,21.90237 -14.97895,27.53046 -4.07004,4.35669 -50.97631,42.45101 -85.50798,69.44418 -29.06598,22.72069 -41.88069,41.83854 -46.47946,69.34119 -1.359,8.1274 -1.60932,14.55401 -1.2382,31.78956 0.69711,32.37498 2.59438,62.34634 4.28905,67.75453 0.90853,2.89939 1.48388,8.83083 1.48388,15.29779 0,5.80927 0.48327,15.2698 1.07394,21.02341 0.59067,5.7536 1.45537,17.5069 1.92156,26.11845 0.46619,8.61155 1.30842,17.70293 1.87162,20.20305 0.56321,2.50013 1.35037,10.32954 1.74927,17.3987 l 0.72526,12.85301 -2.9034,1.10387 c -4.35839,1.65706 -27.84782,2.78938 -70.4863,3.39782 l -38.26886,0.54609 z M 650.75191,219.88692 c 0,-6.86812 -8.83862,-13.14688 -14.7289,-10.46309 -1.34403,0.61238 -2.4437,1.7729 -2.4437,2.57893 0,1.1312 0.81657,1.31231 3.57969,0.79395 5.34617,-1.00295 7.31367,0.083 10.09521,5.57215 1.38687,2.73685 2.7412,4.97609 3.00964,4.97609 0.26843,0 0.48806,-1.55611 0.48806,-3.45803 z m 2.38138,-141.197875 c 0.59548,-0.945624 0.73604,-2.065968 0.31236,-2.489653 -1.07769,-1.077691 -4.13867,1.037438 -4.55324,3.146285 -0.44319,2.254338 2.71577,1.765224 4.24088,-0.656632 z"
               style="fill:#92d0ff;stroke-width:1.01015;fill-opacity:1" />
            <path
               transform="matrix(0.26458333,0,0,0.26458333,12.053488,86.694046)"
               id="path115"
               d="m 241.64013,699.14297 c -13.54987,-0.96462 -14.11938,-1.22035 -13.04248,-5.85657 0.47985,-2.06583 0.88593,-6.25619 0.90241,-9.3119 0.0165,-3.05571 0.54718,-8.28325 1.17938,-11.61675 0.63218,-3.3335 1.2358,-13.5613 1.34136,-22.72843 0.14936,-12.97027 0.67118,-18.71011 2.35239,-25.87568 2.06277,-8.79178 3.29028,-22.72953 4.74936,-53.92637 0.35078,-7.50039 1.28803,-21.96869 2.08276,-32.15179 2.2799,-29.21289 1.59678,-49.07281 -2.21235,-64.31778 -2.04102,-8.16864 -9.30197,-22.97502 -14.95396,-30.49384 -6.10733,-8.12455 -20.03665,-21.28287 -33.56971,-31.71164 -6.02445,-4.64252 -22.99961,-17.96783 -37.72258,-29.61181 -14.72298,-11.64399 -29.59615,-23.39163 -33.05149,-26.10587 -12.35618,-9.70603 -15.66304,-14.73406 -27.080708,-41.17587 -8.64476,-20.02012 -21.262646,-45.29595 -32.116213,-64.33439 -13.034905,-22.86476 -16.848068,-33.38797 -16.848068,-46.49571 0,-10.27349 -2.584582,-17.15202 -9.903611,-26.35719 -1.903255,-2.39373 -5.112874,-7.2474 -7.132489,-10.78593 -2.019615,-3.53854 -6.246391,-10.4892 -9.392837,-15.44592 -8.9019447,-14.0236 -15.2657693,-26.32718 -14.5636612,-28.15684 0.5195758,-1.35399 1.8080545,-1.54721 7.5688952,-1.13503 8.337473,0.59655 14.29713,3.2623 21.231387,9.49679 7.283787,6.54875 10.663676,11.58226 24.36721,36.28895 13.837596,24.9484 13.724015,24.7735 15.616429,24.04731 2.627384,-1.00822 2.627677,-6.3624 0.0015,-27.30467 C 66.400141,123.8617 62.375936,101.6157 56.61136,82.085719 54.578113,75.197223 53.868794,71.300966 54.527973,70.641787 c 1.631034,-1.631034 8.828489,-2.170824 12.553447,-0.941477 4.913871,1.621723 10.180884,7.444513 15.184747,16.787044 l 4.318621,8.063143 7.06953,0.518554 c 3.888243,0.285205 8.029972,1.063329 9.203842,1.729165 7.61811,4.321104 15.94737,20.485304 22.09889,42.886234 4.42475,16.11284 5.13687,17.51441 10.71893,21.0964 5.46673,3.508 11.89868,11.78284 16.8306,21.65292 4.68034,9.36661 17.90905,44.56839 19.92962,53.03301 0.99467,4.16687 4.01726,15.02005 6.71686,24.11818 4.70474,15.85574 6.02777,24.56823 3.92789,25.86603 -1.22405,0.75651 -6.25883,-1.78422 -8.18446,-4.13017 -0.79291,-0.96598 -5.26195,-4.29157 -9.9312,-7.3902 -4.66926,-3.09864 -9.0795,-6.07237 -9.80054,-6.60831 -1.80084,-1.33852 -2.49679,-0.37686 -3.12687,4.32075 -0.46356,3.4561 -0.2397,4.11324 1.60016,4.69718 1.25246,0.39752 2.13912,1.52817 2.13912,2.72777 0,5.28135 8.88062,12.22575 20.40395,15.95533 3.50081,1.13305 7.43356,2.61652 8.73948,3.2966 2.02686,1.05554 2.57596,0.96085 3.75165,-0.64699 0.75749,-1.03594 1.5416,-2.37657 1.74247,-2.97918 0.73426,-2.20278 29.74599,10.85911 43.71711,19.68266 5.1791,3.27089 6.64399,4.84017 8.46099,9.06392 2.79596,6.49938 2.44822,8.49599 -1.47971,8.49599 -4.32604,0 -4.43347,3.21304 -0.28049,8.38876 1.8331,2.28452 4.04892,5.16071 4.92404,6.39153 1.26963,1.78566 2.84856,2.32879 7.8142,2.68798 7.70309,0.55719 8.42859,-0.58642 4.85096,-7.64653 -4.02737,-7.94764 -1.76158,-8.38637 8.1712,-1.58223 8.34376,5.71564 26.30832,23.79961 34.80666,35.038 7.73988,10.23539 12.00942,19.3157 16.02321,34.07754 1.71434,6.305 5.07192,16.48071 7.46126,22.61269 3.90977,10.03394 5.2316,14.54244 7.11893,24.28103 0.32301,1.66675 1.00776,27.34988 1.52166,57.07361 0.51389,29.72374 1.63018,67.45294 2.48062,83.84266 1.59278,30.69595 3.61958,84.67705 3.61958,96.40276 v 6.6328 l -44.19418,-0.1554 c -24.30679,-0.0855 -48.51257,-0.46282 -53.79062,-0.83857 z M 236.87941,330.3071 c -1.70493,-1.70494 -3.73093,-0.0824 -2.20018,1.76199 0.8453,1.01853 1.54086,1.14566 2.27139,0.41514 0.73051,-0.73051 0.70871,-1.39721 -0.0712,-2.17713 z m -95.8202,-74.52281 c 0.30447,-0.49263 -0.0828,-1.42385 -0.8606,-2.06936 -1.57455,-1.30676 -3.18691,0.19482 -2.09912,1.9549 0.77297,1.25069 2.22283,1.30676 2.95972,0.11446 z M 64.640856,215.45263 c 0.95753,-2.03355 2.422107,-3.78684 3.254615,-3.89619 6.815952,-0.89519 9.089794,-1.60168 9.089794,-2.82422 0,-2.45811 -5.738767,-2.92303 -9.874403,-0.79996 -4.185918,2.14888 -8.011576,8.056 -6.971944,10.76523 0.892333,2.32539 2.386061,1.24876 4.501938,-3.24486 z M 61.219557,78.058283 c 1.048271,-1.696139 -0.663886,-5.226066 -2.534853,-5.226066 -1.31965,0 -1.90249,0.722089 -1.90249,2.357023 0,1.296362 0.303046,2.660068 0.673436,3.030457 0.936832,0.936832 3.143643,0.842194 3.763907,-0.161414 z"
               style="fill:#92d0ff;stroke-width:1.01015;fill-opacity:1" />
          </g>
          <path
             style="fill:none;stroke-width:1.01015;fill-opacity:0.53839821"
             d="m 282.04623,699.17697 c -36.14377,-0.41038 -49.56378,-0.88339 -51.1711,-1.80361 -1.76687,-1.01156 -2.10165,-1.96623 -1.77102,-5.05026 0.22423,-2.0916 0.89503,-8.12131 1.49068,-13.39936 0.59563,-5.27805 1.47186,-18.46054 1.94716,-29.29442 0.4753,-10.83389 1.54227,-22.87996 2.37104,-26.76905 1.69126,-7.9364 3.14964,-24.15024 4.72471,-52.52793 0.58591,-10.55609 1.50232,-25.10229 2.03648,-32.32488 1.42233,-19.23192 1.18722,-43.97722 -0.5258,-55.34197 -2.44089,-16.19352 -9.93506,-32.25841 -21.14562,-45.32883 -8.09464,-9.43757 -20.00672,-19.48736 -63.21544,-53.33257 C 135.39734,367.24941 115.37095,350.921 112.28425,347.71874 106.15006,341.35492 101.1152,332.33148 91.281262,310.0773 83.364385,292.16142 74.205032,273.87028 61.254404,250.11399 47.829524,225.48774 45.844629,220.13987 44.144151,204.01413 42.676459,190.09591 41.543121,186.99656 34.03656,176.37285 23.72784,161.78338 3.2441297,126.43322 3.2441297,123.23222 c 0,-1.9582 13.9877073,-0.54988 18.7405873,1.88685 5.816056,2.9818 14.08633,10.70736 18.535444,17.31461 2.094307,3.11019 9.105429,15.02761 15.580268,26.48315 6.47484,11.45554 12.45902,21.39807 13.298178,22.09451 2.447823,2.03151 4.5562,-0.50257 4.5562,-5.47615 0,-4.73464 -3.058644,-30.37692 -6.093324,-51.08367 C 65.17533,116.1229 62.415423,102.37959 58.056125,85.624493 53.96906,69.91573 53.985177,69.844456 61.630603,69.817228 c 7.939121,-0.02827 12.579729,3.861683 19.871573,16.65721 l 4.58679,8.048769 8.156543,1.165414 c 6.699461,0.957225 8.696701,1.681476 11.180271,4.054255 6.91174,6.603434 13.01397,19.734644 19.62763,42.236154 l 3.84547,13.08335 9.20202,9.14001 c 7.87327,7.82022 9.87163,10.5257 13.83941,18.73645 9.38524,19.42143 18.54216,46.32118 28.69459,84.2944 2.62807,9.82983 3.17019,17.73101 1.21656,17.73101 -0.65991,0 -3.72825,-1.97583 -6.81853,-4.39073 -9.97411,-7.79426 -20.11774,-14.06503 -21.74288,-13.4414 -2.37232,0.91034 -2.04822,7.86817 0.46681,10.0216 1.11117,0.95141 2.0203,2.59054 2.0203,3.64249 0,2.33193 6.50966,8.37599 12.08426,11.21994 5.15341,2.62907 17.44615,7.09024 19.53715,7.09024 0.86761,0 1.86603,-0.90914 2.2187,-2.02031 0.35268,-1.11117 0.99399,-2.0203 1.42517,-2.0203 5.0539,0 39.09635,16.43118 45.63101,22.02459 4.19053,3.58694 6.98698,8.45923 6.98698,12.17349 0,1.38117 -0.87083,2.06592 -3.03045,2.38288 -2.06798,0.30351 -3.03046,0.0191 -3.03046,-0.8955 0,-0.73716 -0.90914,-1.34028 -2.02031,-1.34028 -1.17514,0 -2.0203,0.67344 -2.0203,1.6098 0,0.88539 0.90914,1.84754 2.0203,2.13812 1.11117,0.29058 2.02031,1.2099 2.02031,2.04293 0,1.91691 6.55103,10.90294 9.40667,12.90311 1.30769,0.91594 4.44844,1.50909 7.99069,1.50909 6.7727,0 7.17172,-0.85112 3.85521,-8.22345 -1.62931,-3.62181 -1.72637,-4.46 -0.54687,-4.72202 4.24175,-0.94224 30.33158,22.68689 41.80255,37.85987 6.49977,8.59746 12.56946,20.48249 15.30269,29.96418 1.14878,3.98519 5.07811,16.06935 8.73183,26.85369 7.87793,23.25253 7.90054,23.45319 8.88777,78.88199 0.65278,36.651 1.3982,59.70122 4.00166,123.74368 0.81309,20.00102 1.68187,43.07038 1.93061,51.26524 l 0.45225,14.89975 -4.18797,-0.20185 c -2.30339,-0.11102 -26.23456,-0.45217 -53.18038,-0.75812 z M 141.44496,254.92381 c -0.50711,-2.6332 -3.85054,-2.92687 -3.85054,-0.3382 0,1.44562 0.64875,2.09437 2.09437,2.09437 1.44563,0 1.98961,-0.54399 1.75617,-1.75617 z M 64.858627,216.2833 c 1.722097,-3.37558 2.688478,-4.13224 5.942148,-4.65252 5.039961,-0.80592 6.624411,-1.84483 5.858314,-3.84125 -0.790773,-2.06072 -5.864431,-2.12437 -9.736321,-0.12213 -4.019658,2.07864 -7.110096,6.31777 -7.110096,9.75286 0,4.23887 2.602577,3.65246 5.045955,-1.13696 z M 61.647535,76.115213 c -0.228859,-1.988997 -0.965117,-2.869593 -2.592477,-3.100715 -1.933498,-0.2746 -2.272844,0.140156 -2.272844,2.777919 0,2.655395 0.372328,3.100715 2.592478,3.100715 2.232211,0 2.54806,-0.386038 2.272843,-2.777919 z"
             id="path119"
             transform="matrix(0.26458333,0,0,0.26458333,12.053488,86.694046)" />
          <path
             style="fill:none;stroke-width:1.01015;fill-opacity:0.53839821"
             d="m 371.51344,696.85395 c 0.27377,-3.4724 1.3985,-28.13275 2.4994,-54.80078 1.1009,-26.66802 2.42292,-58.48783 2.93782,-70.71068 0.5149,-12.22284 1.21876,-39.72424 1.56413,-61.11422 0.80892,-50.09948 1.27366,-54.83265 7.00233,-71.3158 2.49106,-7.16757 6.64926,-19.85047 9.24044,-28.18423 5.35203,-17.21326 7.57857,-22.08572 13.64461,-29.85929 15.55114,-19.92862 43.01839,-45.05493 45.99674,-42.07658 0.33807,0.33807 -0.38188,2.67329 -1.5999,5.18938 -2.89547,5.98123 -2.45569,8.069 1.78578,8.47767 4.70653,0.45348 11.68091,-3.24149 15.94832,-8.44929 3.94196,-4.81065 4.17922,-7.85303 0.65165,-8.35626 -5.66313,-0.8079 -4.6581,-9.08382 1.77149,-14.58731 9.30871,-7.96791 44.02765,-25.13608 47.85906,-23.66584 0.90597,0.34766 1.64722,1.55551 1.64722,2.68412 0,2.76184 2.41654,2.64594 10.82548,-0.51917 10.45204,-3.93414 14.98393,-7.03313 21.06343,-14.4036 5.30704,-6.43398 5.56072,-7.00166 5.27832,-11.81207 -0.35056,-5.97143 -1.50132,-6.34673 -6.77388,-2.20914 -5.20518,4.08469 -23.33036,15.8437 -24.42127,15.8437 -2.31333,0 -0.36842,-10.4834 6.14174,-33.10491 8.4065,-29.21089 17.08257,-52.79656 25.48118,-69.26989 5.87873,-11.53075 8.60487,-15.07598 18.02634,-23.44249 3.01196,-2.67469 4.12164,-5.1536 8.36566,-18.68782 5.92762,-18.90333 10.97978,-29.69727 17.82348,-38.07997 l 5.15436,-6.31345 h 8.00478 8.00477 l 3.58362,-7.756268 c 6.57108,-14.222251 10.44041,-17.497545 20.67105,-17.497545 5.80999,0 6.11108,0.121801 6.11108,2.472206 0,1.359713 -1.78111,9.698447 -3.95802,18.530521 -4.78566,19.416176 -7.2136,33.540506 -11.19704,65.137796 -3.63744,28.85283 -3.81562,34.06763 -1.16394,34.06763 2.6758,0 3.93384,-1.74982 13.7989,-19.1929 16.42752,-29.04661 25.79591,-41.37643 34.97123,-46.02592 3.88749,-1.96994 6.39863,-2.4614 12.57658,-2.4614 7.69281,0 7.7171,0.008 7.09649,2.48122 -0.80044,3.1892 -22.90893,40.2703 -30.29194,50.80663 -7.98427,11.39442 -9.6588,15.53429 -9.70318,23.98882 -0.0727,13.85338 -3.6347,23.68838 -18.34207,50.6444 -10.85259,19.89084 -24.50965,47.92334 -33.27635,68.30302 -3.4052,7.91599 -7.84557,16.89284 -9.86748,19.94855 -4.2663,6.44768 -13.72492,14.52283 -66.81072,57.03867 -20.27881,16.24108 -39.8991,32.74622 -43.60064,36.67807 -11.98563,12.73142 -19.84021,26.34635 -24.31606,42.14878 -2.17891,7.69288 -2.28594,9.70738 -2.22722,41.92133 0.0583,31.97375 1.45836,58.78125 3.48199,66.67007 0.49882,1.94454 1.37683,12.17233 1.95115,22.72843 1.51413,27.83003 2.90976,46.69546 4.55848,61.6193 0.79792,7.22259 1.69503,16.62441 1.99357,20.89292 l 0.54281,7.76092 -5.28468,1.09082 c -7.11139,1.46787 -47.83272,3.03087 -79.74544,3.06089 l -25.97342,0.0244 z M 650.75191,219.38204 c 0,-4.85367 -4.36189,-9.76895 -9.52939,-10.73837 -3.79286,-0.71155 -7.64321,0.86022 -7.64321,3.12006 0,1.07836 1.22225,1.47969 4.50633,1.47969 4.92992,0 7.49453,1.90156 9.67976,7.17717 1.69446,4.0908 2.98651,3.64149 2.98651,-1.03855 z m 2.84817,-141.246522 c 0.35476,-2.497901 -1.6403,-3.076652 -3.6563,-1.06066 -2.01599,2.015991 -1.43724,4.011057 1.06067,3.656298 1.46064,-0.207443 2.38819,-1.135001 2.59563,-2.595638 z"
             id="path121"
             transform="matrix(0.26458333,0,0,0.26458333,12.053488,86.694046)" />
          <path
             style="fill:none;fill-opacity:0.47414237;stroke-width:1.00913387;stroke:none;stroke-miterlimit:4;stroke-dasharray:none"
             d="m 280.531,699.12274 c -26.39023,-0.3367 -48.81078,-0.98941 -49.82343,-1.45047 -1.98169,-0.90226 -1.94619,-3.60345 0.32606,-24.80945 0.50601,-4.72246 1.18912,-15.63211 1.51802,-24.24366 0.32889,-8.61155 1.24369,-19.06663 2.0329,-23.2335 1.9493,-10.29199 3.28246,-24.12436 4.52717,-46.9721 0.57508,-10.55609 1.57635,-25.78414 2.22506,-33.84011 1.72358,-21.40413 1.45899,-55.22333 -0.50715,-64.82293 -3.31113,-16.16645 -11.87636,-32.67137 -23.35276,-44.99995 -9.12555,-9.80317 -16.75226,-16.17051 -62.70986,-52.35483 -21.11219,-16.62251 -40.52468,-32.43927 -43.13887,-35.14835 -5.244,-5.43436 -10.31733,-14.71068 -20.523453,-37.52602 C 82.560597,290.62142 72.630113,270.78005 62.1127,251.79463 47.800066,225.95828 45.555981,219.96599 44.182695,203.91679 43.136151,191.68615 41.45484,187.00312 34.704955,177.51805 25.501545,164.58524 2.7390535,125.66197 2.7390535,122.85719 c 0,-1.17885 12.1657735,-0.42238 16.2218235,1.00868 5.841382,2.06096 14.265392,8.70266 18.890529,14.89377 2.078186,2.78181 9.95466,15.79207 17.503273,28.91167 15.826157,27.5061 17.383292,28.94692 17.886363,16.55031 0.544292,-13.41236 -7.492068,-68.04981 -13.54263,-92.073369 -1.881702,-7.47123 -3.421274,-13.674292 -3.421274,-13.784583 0,-0.110291 1.083138,0.0065 2.406974,0.259593 2.967825,0.567336 4.105498,-1.03951 2.654961,-3.749862 -1.446973,-2.703695 -3.884707,-2.592401 -5.074223,0.231661 -0.827865,1.965453 -0.925925,1.794681 -0.725064,-1.26269 0.231458,-3.523084 0.251111,-3.536615 5.580921,-3.842435 4.065163,-0.233256 6.178817,0.206172 8.808204,1.831223 3.455965,2.135904 12.001256,13.836438 14.482435,19.829894 1.256425,3.03498 1.629309,3.201117 8.664319,3.860352 4.412897,0.413522 8.632615,1.468041 10.556705,2.638149 6.58466,4.004377 14.04038,18.961577 20.85987,41.847807 4.69262,15.74841 4.68988,15.74325 11.47821,21.62407 8.94534,7.74949 15.03093,17.57631 22.36007,36.10634 9.40411,23.77615 15.69064,43.55249 23.12511,72.74757 4.05234,15.91349 2.23674,17.98749 -7.97586,9.11104 -4.70268,-4.08742 -18.1465,-12.81488 -19.74009,-12.81488 -0.70027,0 -1.58144,1.64303 -1.95817,3.65116 -0.53097,2.83034 -0.25236,4.13612 1.23933,5.80838 1.05836,1.18647 2.50862,3.6371 3.22281,5.44586 1.81483,4.59625 9.2046,9.67206 20.17801,13.85967 5.13057,1.9579 9.91572,3.55982 10.63367,3.55982 0.71795,0 1.95303,-0.97545 2.74463,-2.16765 1.42157,-2.14099 1.50354,-2.14629 6.6666,-0.4314 7.21453,2.39629 34.11966,15.85822 39.42119,19.72431 4.32105,3.1511 8.89967,11.11176 7.89573,13.72799 -0.69225,1.80398 -5.47704,2.44449 -6.10164,0.8168 -0.70221,-1.82993 -3.61786,-1.74969 -3.61786,0.0996 0,0.80576 0.59087,1.82854 1.31304,2.27284 0.72217,0.4443 2.5083,2.85337 3.96917,5.3535 1.46089,2.50012 4.02637,6.02303 5.70109,7.82868 2.77766,2.99481 3.57251,3.28299 9.05474,3.28299 7.14821,0 7.84277,-0.95222 5.124,-7.02481 -1.06069,-2.36916 -1.92853,-4.71246 -1.92853,-5.20737 0,-3.65429 10.92268,3.91968 24.10781,16.71677 12.63097,12.25924 22.07049,23.82442 26.81525,32.85371 3.64778,6.94173 19.88392,54.39603 22.2873,65.14036 0.87661,3.91886 1.59421,16.80769 1.99945,35.9122 1.07989,50.90971 2.56044,99.17203 4.07501,132.83506 0.79989,17.77868 1.76803,42.8936 2.15142,55.81093 l 0.69706,23.48604 -5.45877,-0.20101 c -3.00232,-0.11055 -27.05078,-0.47649 -53.44102,-0.81319 z M 141.12995,255.22437 c 0,-1.97499 -1.95805,-3.05132 -3.23249,-1.77688 -0.56987,0.56988 -0.73073,1.53032 -0.35744,2.13432 0.99016,1.60212 3.58993,1.34327 3.58993,-0.35744 z M 64.856476,216.2849 c 2.069228,-3.27787 3.292914,-4.14938 6.559593,-4.67175 4.889102,-0.78179 6.763833,-2.60083 4.562951,-4.4274 -2.451433,-2.03451 -8.491364,-0.49536 -12.213609,3.11238 -3.290081,3.18887 -5.04537,7.23829 -3.924028,9.05266 1.112396,1.79989 2.465735,0.97256 5.015093,-3.06589 z"
             id="path946"
             transform="matrix(0.26458333,0,0,0.26458333,12.053488,86.694046)" />
          <path
             style="fill:none;fill-opacity:0.474142;stroke-width:1.00913387;stroke:none;stroke-miterlimit:4;stroke-dasharray:none"
             d="m 371.47926,697.52286 c 1.20067,-13.20851 5.61919,-125.83887 6.51542,-166.08139 1.17392,-52.71144 1.77258,-67.38356 3.08034,-75.4939 0.55858,-3.46416 5.33243,-19.37406 10.60856,-35.35534 7.99019,-24.20212 10.33961,-30.15392 14.06183,-35.62288 9.36424,-13.75866 33.582,-38.19219 43.77923,-44.1693 2.38633,-1.39874 4.51864,-2.36331 4.73848,-2.14348 0.21983,0.21983 -0.50198,2.41364 -1.60403,4.87514 -2.76859,6.18384 -2.26563,8.52567 1.91742,8.92771 4.68446,0.45023 11.67776,-3.22754 15.87346,-8.34784 4.34318,-5.30028 4.46182,-7.40816 0.49479,-8.79106 -2.50426,-0.873 -3.02981,-1.60933 -3.02669,-4.24061 0.008,-7.11027 5.46496,-11.82362 26.43983,-22.83875 10.45462,-5.49033 23.70265,-11.15508 26.08815,-11.15508 0.53231,0 1.26548,1.18589 1.62926,2.63531 0.57651,2.29698 1.06529,2.56829 3.80732,2.11334 10.73278,-1.78078 22.05395,-8.51442 29.12901,-17.32544 4.2379,-5.27775 4.82654,-6.59484 4.82654,-10.79953 0,-2.63379 -0.49778,-5.09636 -1.10619,-5.47237 -0.60839,-0.37602 -2.51164,0.35543 -4.22943,1.62544 -5.05624,3.73825 -24.04872,16.20949 -25.58079,16.7974 -2.09792,0.80504 -1.79488,-3.6299 1.04771,-15.33304 6.96055,-28.65708 19.11018,-63.80666 29.15522,-84.34774 5.40538,-11.05347 7.18867,-13.65566 14.31091,-20.8828 l 8.13608,-8.2559 4.86095,-14.97761 c 5.87246,-18.09433 12.07309,-31.16993 18.47948,-38.96873 l 4.77135,-5.80838 h 7.87858 7.87859 l 4.09355,-8.576842 c 4.63439,-9.709994 9.36516,-15.064074 14.15718,-16.022476 5.5618,-1.112363 11.12238,-0.764388 11.69659,0.73196 0.29261,0.762551 -1.11627,8.376575 -3.13086,16.920056 -2.01458,8.543479 -4.52691,20.203332 -5.58295,25.910782 -2.6061,14.085 -7.98368,55.05446 -8.74237,66.60451 -0.58543,8.91234 -0.51476,9.38635 1.39953,9.38635 2.84247,0 3.87769,-1.43427 14.94657,-20.70813 11.82169,-20.58468 18.486,-30.44966 25.28803,-37.43312 7.27608,-7.47014 10.50593,-8.9069 20.1784,-8.97609 7.53836,-0.0539 8.05798,0.0779 7.7354,1.9625 -0.46437,2.71291 -16.55327,30.18479 -27.21339,46.46702 -10.90329,16.65364 -12.28763,19.71402 -12.33717,27.27412 -0.0939,14.32212 -3.36965,23.29958 -19.75734,54.14615 -10.75733,20.24854 -23.02355,45.60733 -35.36088,73.10395 -3.89035,8.67056 -6.29363,12.49585 -11.04246,17.57622 -6.35306,6.79661 -25.9869,23.17171 -69.20441,57.71816 -14.16739,11.32487 -28.44077,23.11523 -31.71863,26.20079 -13.41342,12.62652 -22.95642,27.56599 -28.42624,44.50099 -2.58641,8.00776 -2.80587,10.06979 -3.25705,30.60345 -0.53059,24.14754 1.07212,62.15347 3.28877,77.98795 0.77776,5.55583 1.66999,14.41992 1.98274,19.69797 1.49473,25.22539 3.79562,56.37119 5.07448,68.69037 2.93787,28.30047 2.9411,26.95652 -0.0666,27.71141 -5.73771,1.44007 -30.01602,2.59329 -68.34994,3.24663 l -40.1552,0.68436 0.54288,-5.97221 z M 650.75191,219.38204 c 0,-3.06764 -0.6935,-4.6564 -3.06977,-7.03267 -3.4728,-3.47281 -8.8069,-4.89962 -11.97615,-3.20348 -3.58732,1.91986 -2.64253,4.09753 1.7777,4.09753 4.58912,0 8.39344,2.6185 10.22358,7.03683 1.74804,4.22015 3.04464,3.83763 3.04464,-0.89821 z m 2.84817,-141.246522 c 0.35476,-2.497901 -1.6403,-3.076652 -3.6563,-1.06066 -2.01599,2.015991 -1.43724,4.011057 1.06067,3.656298 1.46064,-0.207443 2.38819,-1.135001 2.59563,-2.595638 z"
             id="path948"
             transform="matrix(0.26458333,0,0,0.26458333,12.053488,86.694046)" />
        </g>
      </g>
    </g>
  </g>
</svg>
