<?xml version="1.0" encoding="UTF-8" standalone="no"?>
<!-- Created with Inkscape (http://www.inkscape.org/) -->

<svg
   xmlns:dc="http://purl.org/dc/elements/1.1/"
   xmlns:cc="http://creativecommons.org/ns#"
   xmlns:rdf="http://www.w3.org/1999/02/22-rdf-syntax-ns#"
   xmlns:svg="http://www.w3.org/2000/svg"
   xmlns="http://www.w3.org/2000/svg"
   xmlns:sodipodi="http://sodipodi.sourceforge.net/DTD/sodipodi-0.dtd"
   xmlns:inkscape="http://www.inkscape.org/namespaces/inkscape"
   width="187.44698mm"
   height="184.85521mm"
   viewBox="0 0 187.44698 184.85521"
   version="1.1"
   id="svg8"
   inkscape:version="0.92.4 (unknown)"
   sodipodi:docname="logo3.svg">
  <defs
     id="defs2">
    <clipPath
       clipPathUnits="userSpaceOnUse"
       id="clipPath985">
      <rect
         style="opacity:1;fill:#d9b8cf;fill-opacity:1;stroke:#cad100;stroke-width:1.69999993;stroke-linecap:square;stroke-linejoin:round;stroke-miterlimit:4;stroke-dasharray:none;stroke-opacity:1"
         id="rect987"
         width="105.05219"
         height="161.14386"
         x="-175.38094"
         y="67.946426" />
    </clipPath>
    <filter
       inkscape:label="Fade to Black or White"
       inkscape:menu="Color"
       inkscape:menu-tooltip="Light areas turn to black"
       style="color-interpolation-filters:sRGB"
       id="filter997">
      <feColorMatrix
         type="luminanceToAlpha"
         result="result2"
         id="feColorMatrix989" />
      <feComposite
         in2="SourceGraphic"
         operator="arithmetic"
         in="result2"
         k3="2"
         result="result4"
         id="feComposite991"
         k1="0"
         k2="0"
         k4="0" />
      <feBlend
         in="result4"
         mode="multiply"
         result="result3"
         in2="result2"
         id="feBlend993" />
      <feComposite
         in2="SourceGraphic"
         operator="in"
         in="result3"
         id="feComposite995"
         result="fbSourceGraphic" />
      <feColorMatrix
         result="fbSourceGraphicAlpha"
         in="fbSourceGraphic"
         values="0 0 0 -1 0 0 0 0 -1 0 0 0 0 -1 0 0 0 0 1 0"
         id="feColorMatrix999" />
      <feColorMatrix
         id="feColorMatrix1001"
         values="1 0 0 0 0 0 1 0 0 0 0 0 1 0 0 0 0 0 1 0"
         in="fbSourceGraphic"
         result="fbSourceGraphic" />
      <feColorMatrix
         result="fbSourceGraphicAlpha"
         in="fbSourceGraphic"
         values="0 0 0 -1 0 0 0 0 -1 0 0 0 0 -1 0 0 0 0 1 0"
         id="feColorMatrix1003" />
      <feColorMatrix
         id="feColorMatrix1005"
         values="1 0 0 0 0 0 1 0 0 0 0 0 1 0 0 0 0 0 1 0"
         in="fbSourceGraphic"
         result="fbSourceGraphic" />
      <feColorMatrix
         result="fbSourceGraphicAlpha"
         in="fbSourceGraphic"
         values="0 0 0 -1 0 0 0 0 -1 0 0 0 0 -1 0 0 0 0 1 0"
         id="feColorMatrix1007" />
      <feColorMatrix
         id="feColorMatrix1009"
         values="1 0 0 0 0 0 1 0 0 0 0 0 1 0 0 0 0 0 1 0"
         in="fbSourceGraphic"
         result="fbSourceGraphic" />
      <feColorMatrix
         result="fbSourceGraphicAlpha"
         in="fbSourceGraphic"
         values="0 0 0 -1 0 0 0 0 -1 0 0 0 0 -1 0 0 0 0 1 0"
         id="feColorMatrix1011" />
      <feColorMatrix
         id="feColorMatrix1013"
         values="1 0 0 0 0 0 1 0 0 0 0 0 1 0 0 0 0 0 1 0"
         in="fbSourceGraphic"
         result="fbSourceGraphic" />
      <feColorMatrix
         result="fbSourceGraphicAlpha"
         in="fbSourceGraphic"
         values="0 0 0 -1 0 0 0 0 -1 0 0 0 0 -1 0 0 0 0 1 0"
         id="feColorMatrix1019" />
      <feColorMatrix
         id="feColorMatrix1021"
         values="0.4 0 0 0 0 0 0.4 0 0 0 0 0 0.4 0 0 0 0 0 1 0"
         in="fbSourceGraphic"
         result="fbSourceGraphic" />
      <feColorMatrix
         result="fbSourceGraphicAlpha"
         in="fbSourceGraphic"
         values="0 0 0 -1 0 0 0 0 -1 0 0 0 0 -1 0 0 0 0 1 0"
         id="feColorMatrix1023" />
      <feColorMatrix
         id="feColorMatrix1025"
         values="1.38778e-16 0 0 0 0 0 1.38778e-16 0 0 0 0 0 1.38778e-16 0 0 0 0 0 1 0"
         in="fbSourceGraphic"
         result="fbSourceGraphic" />
      <feColorMatrix
         result="fbSourceGraphicAlpha"
         in="fbSourceGraphic"
         values="0 0 0 -1 0 0 0 0 -1 0 0 0 0 -1 0 0 0 0 1 0"
         id="feColorMatrix1027" />
      <feColorMatrix
         id="feColorMatrix1029"
         values="1.38778e-16 0 0 0 0 0 1.38778e-16 0 0 0 0 0 1.38778e-16 0 0 0 0 0 1 0"
         in="fbSourceGraphic" />
    </filter>
  </defs>
  <sodipodi:namedview
     id="base"
     pagecolor="#bc5f7d"
     bordercolor="#666666"
     borderopacity="1.0"
     inkscape:pageopacity="1"
     inkscape:pageshadow="2"
     inkscape:zoom="0.49497475"
     inkscape:cx="409.04314"
     inkscape:cy="10.665343"
     inkscape:document-units="mm"
     inkscape:current-layer="layer1"
     showgrid="false"
     inkscape:pagecheckerboard="true"
     fit-margin-top="0"
     fit-margin-left="0"
     fit-margin-right="0"
     fit-margin-bottom="0"
     inkscape:window-width="1853"
     inkscape:window-height="1025"
     inkscape:window-x="67"
     inkscape:window-y="27"
     inkscape:window-maximized="1" />
  <metadata
     id="metadata5">
    <rdf:RDF>
      <cc:Work
         rdf:about="">
        <dc:format>image/svg+xml</dc:format>
        <dc:type
           rdf:resource="http://purl.org/dc/dcmitype/StillImage" />
        <dc:title />
      </cc:Work>
    </rdf:RDF>
  </metadata>
  <g
     inkscape:label="Layer 1"
     inkscape:groupmode="layer"
     id="layer1"
     transform="translate(-12.053488,-87.752388)">
    <path
       style="fill:#b1cad2;fill-opacity:1;stroke-width:0.3815698"
       d="m 109.72377,269.22964 c 0.11276,-1.85797 0.36841,-8.33188 0.56808,-14.3865 0.19968,-6.05462 0.53901,-13.21006 0.75408,-15.90101 0.21506,-2.69094 0.41715,-10.85551 0.44909,-18.14347 0.0555,-12.65958 0.0944,-13.3678 0.87132,-15.87189 0.44729,-1.4416 1.13769,-3.34717 1.53421,-4.23459 0.39653,-0.88745 1.16551,-3.30414 1.70887,-5.37045 0.54335,-2.06629 1.42391,-4.67152 1.95678,-5.78937 1.42949,-2.99874 8.40489,-10.7318 11.45371,-12.69775 1.37482,-0.88654 2.6202,-1.52924 2.7675,-1.42822 0.48241,0.33081 0.28046,2.08134 -0.26782,2.32157 -0.63316,0.2774 -0.7151,1.34718 -0.12053,1.57347 0.22832,0.0869 1.08182,-0.0354 1.89667,-0.27182 1.61675,-0.46901 4.11092,-3.19115 3.39001,-3.69985 -0.21606,-0.15245 -0.48963,-0.16676 -0.60792,-0.0318 -0.38265,0.43689 -1.54572,-1.06785 -1.19875,-1.55089 0.17688,-0.24627 0.37719,-0.89756 0.44511,-1.44729 0.19985,-1.61756 10.2094,-7.15713 14.22887,-7.87466 0.3354,-0.0598 0.49601,0.17321 0.42962,0.62334 -0.17286,1.17215 0.73081,1.20621 2.90295,0.10936 1.12435,-0.56772 2.24933,-1.03223 2.49995,-1.03223 0.43298,0 1.97654,-1.60834 3.70995,-3.86563 0.64843,-0.84441 0.72962,-1.22544 0.44392,-2.08339 l -0.34964,-1.04998 -1.09624,1.05319 c -0.60293,0.57925 -1.28478,1.05277 -1.51522,1.05225 -0.23044,-4.1e-4 -1.5178,0.85567 -2.86082,1.90263 -1.96654,1.53302 -2.50419,1.79116 -2.76205,1.32604 -0.53866,-0.97164 -0.3749,-2.06026 0.88424,-5.8779 0.66565,-2.0182 1.48903,-4.95378 1.82975,-6.52349 0.34073,-1.56972 1.13979,-4.04661 1.77571,-5.5042 0.63591,-1.45759 1.28044,-3.10886 1.43229,-3.66946 1.2111,-4.47133 5.10791,-11.17697 6.77239,-11.65395 1.27804,-0.36622 1.83989,-1.32803 2.48097,-4.24706 0.9169,-4.17492 3.31861,-9.57496 5.08561,-11.43461 1.42055,-1.49502 1.68413,-1.61237 3.62158,-1.61237 h 2.08953 l 0.79968,-1.93667 c 1.55292,-3.76077 2.95163,-4.99455 5.66227,-4.99455 2.09176,0 2.6196,0.58804 1.94603,2.16803 -0.54959,1.28919 -1.74829,6.11823 -2.39682,9.6558 -0.86416,4.71368 -2.70837,19.29144 -2.51378,19.87039 0.35929,1.06907 1.12251,0.43907 2.12696,-1.75569 0.5712,-1.24808 1.62999,-3.12826 2.3529,-4.17813 0.72287,-1.04989 1.77744,-2.89299 2.34347,-4.09579 1.28162,-2.7234 4.99911,-6.68165 6.87931,-7.32483 0.76752,-0.26255 2.22553,-0.47735 3.24001,-0.47735 2.1426,0 2.67933,0.73783 1.5722,2.16126 -0.77126,0.99163 -4.49177,7.21367 -5.69571,9.52535 -0.42227,0.81075 -1.40021,2.22825 -2.17323,3.15004 -1.91841,2.28758 -3.15006,5.17857 -2.65561,6.23341 0.68591,1.46332 -0.9814,7.21201 -3.04106,10.48536 -3.04097,4.83281 -8.97119,16.83825 -11.00463,22.27836 -1.47806,3.95428 -2.84227,5.76294 -6.42592,8.51947 -2.45035,1.88478 -4.88435,3.83497 -11.52815,9.23656 -1.8232,1.48231 -5.19778,4.12329 -7.49906,5.86887 -10.07874,7.6449 -13.28419,13.84857 -13.27617,25.69406 0.002,2.80306 0.14767,5.83037 0.32395,6.72735 0.17627,0.89699 0.37321,4.01603 0.43764,6.93121 0.0827,3.74247 0.25912,5.47099 0.60016,5.88094 0.31564,0.37944 0.41128,1.0853 0.276,2.03713 -0.11385,0.80108 0.0601,4.11754 0.38663,7.3699 0.32651,3.25236 0.55544,7.0601 0.50872,8.46163 -0.0474,1.42215 0.0664,2.54823 0.2576,2.54823 0.18839,0 0.45352,1.78887 0.58918,3.97526 0.13565,2.18639 0.27117,4.3406 0.30114,4.78712 0.0862,1.28531 -2.19003,1.51771 -16.65949,1.70081 l -13.14301,0.16641 z m 73.74744,-125.91061 c -0.57611,-1.22909 -2.66086,-2.1701 -3.57296,-1.61273 -1.03321,0.63132 -0.86207,0.948 0.36135,0.66863 1.5029,-0.3432 2.08837,0.023 2.7492,1.7202 0.40937,1.05132 0.61875,1.27918 0.72348,0.78735 0.0811,-0.38068 -0.0364,-1.08423 -0.26107,-1.56345 z m 0.88367,-36.24561 c 0.35778,-0.66099 -0.41969,-0.86185 -0.88077,-0.22755 -0.35879,0.49362 -0.33691,0.60709 0.11696,0.60709 0.30707,0 0.65075,-0.1708 0.76376,-0.37954 z M 76.287685,271.38622 c -4.20221,-0.23632 -4.854703,-0.42009 -4.409873,-1.24186 0.134034,-0.2476 0.285378,-1.86886 0.336332,-3.60279 0.05094,-1.73395 0.294217,-3.58265 0.540586,-4.10827 0.274524,-0.58565 0.357753,-1.5296 0.214976,-2.43816 -0.40672,-2.58818 -0.190204,-6.29403 0.516841,-8.84627 0.376513,-1.35911 0.673648,-2.82689 0.660299,-3.26173 -0.01335,-0.43486 0.07882,-2.1579 0.204841,-3.82896 0.126021,-1.67108 0.302281,-5.17309 0.391697,-7.78223 0.08943,-2.60915 0.323146,-6.01222 0.519386,-7.56236 0.196243,-1.55015 0.359986,-5.23015 0.363877,-8.17778 0.0095,-7.27807 -1.072638,-11.37048 -4.320457,-16.33744 -1.499776,-2.29363 -5.887685,-6.53431 -9.300816,-8.98874 -1.165791,-0.83833 -4.963918,-3.80898 -8.440289,-6.60145 -3.476372,-2.79245 -7.606226,-6.05718 -9.177458,-7.25494 -4.55257,-3.47044 -5.319739,-4.52406 -8.0791,-11.09568 -3.010587,-7.16994 -5.844007,-12.79582 -9.915693,-19.68806 -2.322357,-3.93113 -3.735426,-8.3693 -3.431362,-10.77727 0.255961,-2.02702 -0.877342,-4.91754 -2.668668,-6.80652 -0.611695,-0.64504 -1.424161,-1.87104 -1.80548,-2.72443 -0.38132,-0.85341 -0.852701,-1.66412 -1.047515,-1.80159 -0.194813,-0.13745 -1.585843,-2.37052 -3.091176,-4.96234 -2.948847,-5.0772 -2.98237,-5.42487 -0.524291,-5.43747 0.670153,-0.003 2.103582,0.31232 3.185399,0.70167 2.283262,0.82176 5.427875,4.07822 7.06431,7.31559 0.546469,1.08108 1.805306,3.3585 2.797418,5.06091 0.99211,1.70242 2.077576,3.67477 2.412151,4.38298 0.33457,0.70821 0.781524,1.28766 0.993226,1.28766 0.724451,0 0.845855,-1.37324 0.412087,-4.66125 -0.238665,-1.80909 -0.735275,-5.58268 -1.103581,-8.38575 -0.818956,-6.23283 -1.928642,-11.94333 -2.918533,-15.01893 -1.312665,-4.07845 -1.316633,-4.04425 0.505593,-4.35624 2.723671,-0.46634 4.76285,1.13277 6.509938,5.10503 0.797141,1.81242 1.092484,2.01506 2.544749,1.74599 3.443507,-0.63802 6.256851,3.38283 8.697924,12.43114 1.057601,3.92019 1.208214,4.22541 2.355185,4.77257 2.215604,1.05696 4.775263,5.03827 6.559166,10.20217 0.464806,1.34547 1.35352,3.63887 1.974928,5.09646 0.621404,1.45761 1.330143,3.7102 1.574975,5.00577 0.24483,1.29557 1.084703,4.29334 1.866384,6.66173 1.488485,4.5099 1.648144,6.37225 0.566369,6.60654 -0.349262,0.0755 -1.221391,-0.45029 -1.93807,-1.16875 -0.716678,-0.71845 -1.877168,-1.57611 -2.578866,-1.90593 -0.701697,-0.3298 -1.636746,-0.98031 -2.07788,-1.44556 -0.915188,-0.96524 -1.011655,-0.921 -1.35021,0.61912 -0.211894,0.96391 -0.138193,1.12039 0.527695,1.12039 0.425689,0 0.682112,0.16972 0.569823,0.37716 -0.735652,1.35905 2.583815,4.042 5.875583,4.74892 0.687414,0.14757 1.46296,0.46478 1.723433,0.70476 0.451201,0.41574 0.882269,0.0398 1.225047,-1.06833 0.263349,-0.85135 11.815272,4.70968 13.446038,6.47284 0.277008,0.2995 0.703718,1.20899 0.948248,2.02111 0.370486,1.23045 0.360939,1.51324 -0.05728,1.69646 -0.276035,0.12088 -0.742919,0.11425 -1.037525,-0.0139 -0.84003,-0.36804 -0.661415,1.26507 0.195644,1.78877 0.402206,0.24575 0.876104,0.88172 1.0531,1.41326 0.251336,0.75477 0.686332,1.02881 1.986427,1.2514 2.036652,0.34872 2.591883,-0.28788 1.558866,-1.7873 -0.378074,-0.54879 -0.687408,-1.24824 -0.687408,-1.55437 0,-0.64496 1.277819,-0.7569 1.611139,-0.14112 0.123693,0.22851 1.057167,0.89329 2.07439,1.47729 1.153391,0.66218 3.403506,2.80939 5.978391,5.70498 4.455319,5.01024 5.634749,7.17345 6.972421,12.78816 0.347265,1.45761 1.166969,3.88796 1.821574,5.40083 2.031335,4.69464 2.242626,6.52643 2.248505,19.49366 0.0029,6.404 0.243025,15.66942 0.533605,20.58979 0.62703,10.61745 1.29112,30.36649 1.0369,30.83614 -0.19606,0.36219 -18.527976,0.3283 -25.193942,-0.0466 z m -2.082358,-97.47517 c 0,-0.22425 -0.170171,-0.40772 -0.378175,-0.40772 -0.207994,0 -0.278856,0.18347 -0.157464,0.40772 0.121385,0.22425 0.291563,0.40772 0.378173,0.40772 0.0866,0 0.157484,-0.18347 0.157484,-0.40772 z m -25.353973,-20.158 c 0,-0.0989 -0.160689,-0.29319 -0.357098,-0.43177 -0.196404,-0.13868 -0.357098,-0.0577 -0.357098,0.17978 0,0.23749 0.160689,0.43179 0.357098,0.43179 0.196404,0 0.357098,-0.0809 0.357098,-0.1798 z m -18.293971,-11.8479 c 1.653249,0 1.884996,-0.73358 0.299166,-0.94698 -1.621107,-0.21816 -3.86518,2.05764 -3.214412,3.25987 0.151492,0.27985 0.476685,-0.0843 0.826783,-0.92579 0.52228,-1.25537 0.720605,-1.3871 2.088463,-1.3871 z m -2.837915,-35.53963 c -0.173739,-1.02287 -1.008203,-1.16332 -1.008203,-0.16969 0,0.50082 0.230575,0.84942 0.561832,0.84942 0.332544,0 0.514711,-0.2774 0.446371,-0.67972 z"
       id="path1031"
       inkscape:connector-curvature="0" />
    <circle
       style="opacity:0.3;fill:#ffff09;fill-opacity:1;stroke-width:0.16964976"
       cx="105.22858"
       cy="123.16875"
       id="circle1221"
       r="36.474701" />
    <circle
       style="opacity:0.3;fill:#9600fa;fill-opacity:1;stroke-width:0.1301984"
       cx="104.85059"
       cy="130.65268"
       r="20.141058"
       id="circle1219" />
  </g>
</svg>
